<svg width="800" height="400" viewBox="0 0 800 400" xmlns="http://www.w3.org/2000/svg"><mask id="satori_om-id"><rect x="0" y="0" width="800" height="400" fill="#fff"/></mask><rect x="0" y="0" width="800" height="400" fill="#fff"/><mask id="satori_om-id-0"><rect x="0" y="108" width="800" height="184" fill="#fff"/></mask><rect x="0" y="108" width="800" height="184" fill="#f9fafb"/><mask id="satori_om-id-0-0"><rect x="0" y="108" width="800" height="184" fill="#fff"/></mask><mask id="satori_om-id-0-0-0"><rect x="32" y="160" width="360" height="80" fill="#fff"/></mask><mask id="satori_om-id-0-0-0-0"><rect x="32" y="160" width="360" height="40" fill="#fff"/></mask><path fill="#111827" d="M57.4 176.1L57.4 176.1L51.8 176.1Q51.6 175.0 51.2 174.1Q50.7 173.3 49.9 172.7Q49.2 172.1 48.2 171.8Q47.3 171.4 46.1 171.4L46.1 171.4Q44.1 171.4 42.6 172.5Q41.1 173.5 40.3 175.4Q39.4 177.3 39.4 180L39.4 180Q39.4 182.8 40.3 184.7Q41.1 186.6 42.6 187.6Q44.1 188.6 46.1 188.6L46.1 188.6Q47.2 188.6 48.2 188.3Q49.1 188.0 49.9 187.4Q50.6 186.8 51.1 186.0Q51.6 185.2 51.8 184.1L51.8 184.1L57.4 184.2Q57.2 186.0 56.3 187.6Q55.4 189.3 54.0 190.6Q52.5 191.9 50.5 192.7Q48.5 193.4 46.0 193.4L46.0 193.4Q42.5 193.4 39.8 191.9Q37.0 190.3 35.4 187.3Q33.8 184.3 33.8 180L33.8 180Q33.8 175.7 35.4 172.7Q37.0 169.7 39.8 168.1Q42.6 166.6 46.0 166.6L46.0 166.6Q48.3 166.6 50.2 167.2Q52.2 167.8 53.7 169.1Q55.2 170.3 56.2 172.0Q57.1 173.8 57.4 176.1ZM65.9 193.5L65.9 193.5Q64.1 193.5 62.6 192.8Q61.1 192.1 60.3 190.8Q59.4 189.5 59.4 187.6L59.4 187.6Q59.4 186.0 60.0 184.9Q60.6 183.7 61.7 183.1Q62.7 182.4 64.0 182.0Q65.3 181.7 66.8 181.6L66.8 181.6Q68.5 181.4 69.6 181.2Q70.6 181.1 71.1 180.7Q71.6 180.4 71.6 179.8L71.6 179.8L71.6 179.7Q71.6 178.5 70.8 177.8Q70.0 177.2 68.6 177.2L68.6 177.2Q67.2 177.2 66.3 177.8Q65.4 178.5 65.2 179.4L65.2 179.4L60.1 179.0Q60.5 177.2 61.6 175.9Q62.8 174.6 64.5 173.9Q66.3 173.2 68.7 173.2L68.7 173.2Q70.3 173.2 71.8 173.6Q73.3 174.0 74.5 174.8Q75.7 175.6 76.3 176.8Q77.0 178.1 77.0 179.8L77.0 179.8L77.0 193.1L71.8 193.1L71.8 190.4L71.7 190.4Q71.2 191.3 70.4 192.0Q69.6 192.7 68.5 193.1Q67.4 193.5 65.9 193.5ZM67.5 189.7L67.5 189.7Q68.7 189.7 69.6 189.2Q70.6 188.7 71.1 187.9Q71.6 187.1 71.6 186.1L71.6 186.1L71.6 184.0Q71.3 184.2 70.9 184.3Q70.5 184.4 69.9 184.5Q69.4 184.6 68.8 184.7Q68.3 184.8 67.8 184.9L67.8 184.9Q66.9 185.0 66.1 185.3Q65.4 185.6 65.0 186.1Q64.6 186.7 64.6 187.4L64.6 187.4Q64.6 188.5 65.4 189.1Q66.3 189.7 67.5 189.7ZM85.8 193.1L80.3 193.1L80.3 173.5L85.5 173.5L85.5 176.9L85.8 176.9Q86.4 175.2 87.8 174.2Q89.2 173.2 91.2 173.2L91.2 173.2Q93.3 173.2 94.7 174.2Q96.1 175.2 96.6 176.9L96.6 176.9L96.8 176.9Q97.4 175.2 98.9 174.2Q100.5 173.2 102.7 173.2L102.7 173.2Q105.4 173.2 107.2 174.9Q108.9 176.7 108.9 179.9L108.9 179.9L108.9 193.1L103.4 193.1L103.4 181.0Q103.4 179.3 102.6 178.5Q101.7 177.7 100.4 177.7L100.4 177.7Q98.9 177.7 98.1 178.6Q97.3 179.6 97.3 181.1L97.3 181.1L97.3 193.1L92.0 193.1L92.0 180.8Q92.0 179.4 91.1 178.5Q90.3 177.7 89.0 177.7L89.0 177.7Q88.1 177.7 87.4 178.1Q86.6 178.6 86.2 179.4Q85.8 180.2 85.8 181.3L85.8 181.3L85.8 193.1ZM117.7 200.5L112.3 200.5L112.3 173.5L117.6 173.5L117.6 176.8L117.9 176.8Q118.2 176.0 118.9 175.1Q119.6 174.3 120.7 173.8Q121.8 173.2 123.5 173.2L123.5 173.2Q125.6 173.2 127.4 174.3Q129.2 175.4 130.3 177.7Q131.4 179.9 131.4 183.3L131.4 183.3Q131.4 186.6 130.4 188.8Q129.3 191.1 127.5 192.3Q125.7 193.4 123.5 193.4L123.5 193.4Q121.9 193.4 120.8 192.9Q119.7 192.4 119.0 191.6Q118.3 190.8 117.9 189.9L117.9 189.9L117.7 189.9L117.7 200.5ZM117.6 183.3L117.6 183.3Q117.6 185.0 118.1 186.3Q118.6 187.6 119.5 188.4Q120.4 189.1 121.7 189.1L121.7 189.1Q123.1 189.1 124.0 188.3Q124.9 187.6 125.4 186.3Q125.9 185.0 125.9 183.3L125.9 183.3Q125.9 181.6 125.4 180.3Q124.9 179.0 124.0 178.3Q123.1 177.5 121.7 177.5L121.7 177.5Q120.4 177.5 119.5 178.2Q118.6 178.9 118.1 180.2Q117.6 181.5 117.6 183.3ZM139.7 193.5L139.7 193.5Q137.9 193.5 136.4 192.8Q134.9 192.1 134.1 190.8Q133.2 189.5 133.2 187.6L133.2 187.6Q133.2 186.0 133.8 184.9Q134.4 183.7 135.5 183.1Q136.5 182.4 137.8 182.0Q139.1 181.7 140.6 181.6L140.6 181.6Q142.3 181.4 143.4 181.2Q144.4 181.1 144.9 180.7Q145.3 180.4 145.3 179.8L145.3 179.8L145.3 179.7Q145.3 178.5 144.6 177.8Q143.8 177.2 142.4 177.2L142.4 177.2Q141.0 177.2 140.1 177.8Q139.2 178.5 138.9 179.4L138.9 179.4L133.9 179.0Q134.3 177.2 135.4 175.9Q136.5 174.6 138.3 173.9Q140.1 173.2 142.5 173.2L142.5 173.2Q144.1 173.2 145.6 173.6Q147.1 174.0 148.3 174.8Q149.4 175.6 150.1 176.8Q150.8 178.1 150.8 179.8L150.8 179.8L150.8 193.1L145.6 193.1L145.6 190.4L145.5 190.4Q145.0 191.3 144.2 192.0Q143.4 192.7 142.3 193.1Q141.2 193.5 139.7 193.5ZM141.3 189.7L141.3 189.7Q142.5 189.7 143.4 189.2Q144.3 188.7 144.9 187.9Q145.4 187.1 145.4 186.1L145.4 186.1L145.4 184.0Q145.1 184.2 144.7 184.3Q144.2 184.4 143.7 184.5Q143.1 184.6 142.6 184.7Q142.1 184.8 141.6 184.9L141.6 184.9Q140.6 185.0 139.9 185.3Q139.2 185.6 138.8 186.1Q138.4 186.7 138.4 187.4L138.4 187.4Q138.4 188.5 139.2 189.1Q140.0 189.7 141.3 189.7ZM159.6 193.1L154.1 193.1L154.1 173.5L159.6 173.5L159.6 193.1ZM156.9 170.9L156.9 170.9Q155.6 170.9 154.8 170.1Q153.9 169.3 153.9 168.2L153.9 168.2Q153.9 167.0 154.8 166.2Q155.6 165.4 156.9 165.4L156.9 165.4Q158.1 165.4 158.9 166.2Q159.8 167.0 159.8 168.2L159.8 168.2Q159.8 169.3 158.9 170.1Q158.1 170.9 156.9 170.9ZM171.9 200.9L171.9 200.9Q169.2 200.9 167.3 200.1Q165.4 199.4 164.3 198.2Q163.2 196.9 162.9 195.4L162.9 195.4L167.9 194.7Q168.2 195.3 168.7 195.8Q169.2 196.3 170.0 196.6Q170.8 197.0 172.0 197.0L172.0 197.0Q173.8 197.0 174.9 196.1Q176.1 195.2 176.1 193.2L176.1 193.2L176.1 189.6L175.9 189.6Q175.5 190.4 174.8 191.2Q174.1 191.9 172.9 192.3Q171.8 192.8 170.3 192.8L170.3 192.8Q168.0 192.8 166.2 191.8Q164.4 190.8 163.4 188.6Q162.3 186.5 162.3 183.2L162.3 183.2Q162.3 179.9 163.4 177.7Q164.5 175.4 166.3 174.3Q168.1 173.2 170.2 173.2L170.2 173.2Q171.9 173.2 173.0 173.8Q174.1 174.3 174.8 175.1Q175.5 176.0 175.9 176.8L175.9 176.8L176.1 176.8L176.1 173.5L181.5 173.5L181.5 193.3Q181.5 195.8 180.2 197.5Q179.0 199.2 176.8 200.0Q174.7 200.9 171.9 200.9ZM172.0 188.7L172.0 188.7Q173.3 188.7 174.2 188.1Q175.1 187.4 175.6 186.2Q176.1 184.9 176.1 183.2L176.1 183.2Q176.1 181.5 175.6 180.2Q175.1 178.9 174.2 178.2Q173.3 177.5 172.0 177.5L172.0 177.5Q170.6 177.5 169.7 178.3Q168.8 179.0 168.3 180.3Q167.9 181.5 167.9 183.2L167.9 183.2Q167.9 184.9 168.3 186.1Q168.8 187.4 169.7 188.0Q170.6 188.7 172.0 188.7ZM190.4 181.7L190.4 181.7L190.4 193.1L184.9 193.1L184.9 173.5L190.1 173.5L190.1 176.9L190.3 176.9Q191.0 175.2 192.5 174.2Q194.1 173.2 196.2 173.2L196.2 173.2Q198.3 173.2 199.8 174.1Q201.3 175.0 202.2 176.6Q203.0 178.3 203.0 180.6L203.0 180.6L203.0 193.1L197.6 193.1L197.6 181.6Q197.6 179.8 196.6 178.7Q195.7 177.7 194.1 177.7L194.1 177.7Q193.0 177.7 192.1 178.2Q191.3 178.7 190.8 179.6Q190.4 180.5 190.4 181.7ZM222.7 179.1L222.7 179.1L217.8 179.4Q217.6 178.7 217.2 178.2Q216.8 177.7 216.1 177.4Q215.4 177.1 214.5 177.1L214.5 177.1Q213.2 177.1 212.3 177.6Q211.5 178.1 211.5 179.0L211.5 179.0Q211.5 179.7 212.0 180.2Q212.6 180.7 214.0 181.0L214.0 181.0L217.5 181.7Q220.4 182.3 221.8 183.6Q223.2 184.9 223.2 187.0L223.2 187.0Q223.2 188.9 222.1 190.4Q220.9 191.9 219.0 192.7Q217.0 193.5 214.4 193.5L214.4 193.5Q210.5 193.5 208.2 191.8Q205.9 190.2 205.5 187.4L205.5 187.4L210.9 187.1Q211.1 188.3 212.1 188.9Q213.0 189.5 214.5 189.5L214.5 189.5Q215.9 189.5 216.8 189.0Q217.6 188.4 217.6 187.6L217.6 187.6Q217.6 186.8 217.0 186.3Q216.4 185.9 215.1 185.6L215.1 185.6L211.7 184.9Q208.9 184.3 207.5 182.9Q206.1 181.5 206.1 179.3L206.1 179.3Q206.1 177.4 207.1 176.0Q208.1 174.7 210.0 173.9Q211.9 173.2 214.4 173.2L214.4 173.2Q218.1 173.2 220.2 174.8Q222.4 176.3 222.7 179.1Z M244.4 172.9L237.8 193.1L231.9 193.1L240.9 166.9L248.0 166.9L257.1 193.1L251.1 193.1L244.6 172.9L244.4 172.9ZM237.4 187.1L237.4 182.8L251.4 182.8L251.4 187.1L237.4 187.1ZM275.1 179.1L275.1 179.1L270.1 179.4Q270.0 178.7 269.5 178.2Q269.1 177.7 268.4 177.4Q267.7 177.1 266.8 177.1L266.8 177.1Q265.5 177.1 264.7 177.6Q263.8 178.1 263.8 179.0L263.8 179.0Q263.8 179.7 264.4 180.2Q264.9 180.7 266.3 181.0L266.3 181.0L269.8 181.7Q272.7 182.3 274.1 183.6Q275.5 184.9 275.5 187.0L275.5 187.0Q275.5 188.9 274.4 190.4Q273.3 191.9 271.3 192.7Q269.3 193.5 266.8 193.5L266.8 193.5Q262.9 193.5 260.6 191.8Q258.3 190.2 257.9 187.4L257.9 187.4L263.2 187.1Q263.5 188.3 264.4 188.9Q265.3 189.5 266.8 189.5L266.8 189.5Q268.2 189.5 269.1 189.0Q270.0 188.4 270.0 187.6L270.0 187.6Q270.0 186.8 269.4 186.3Q268.7 185.9 267.5 185.6L267.5 185.6L264.1 184.9Q261.2 184.3 259.8 182.9Q258.4 181.5 258.4 179.3L258.4 179.3Q258.4 177.4 259.4 176.0Q260.4 174.7 262.3 173.9Q264.2 173.2 266.7 173.2L266.7 173.2Q270.4 173.2 272.6 174.8Q274.7 176.3 275.1 179.1ZM294.4 179.1L294.4 179.1L289.4 179.4Q289.3 178.7 288.9 178.2Q288.4 177.7 287.8 177.4Q287.1 177.1 286.1 177.1L286.1 177.1Q284.9 177.1 284.0 177.6Q283.1 178.1 283.1 179.0L283.1 179.0Q283.1 179.7 283.7 180.2Q284.2 180.7 285.6 181.0L285.6 181.0L289.2 181.7Q292.0 182.3 293.4 183.6Q294.8 184.9 294.8 187.0L294.8 187.0Q294.8 188.9 293.7 190.4Q292.6 191.9 290.6 192.7Q288.7 193.5 286.1 193.5L286.1 193.5Q282.2 193.5 279.9 191.8Q277.6 190.2 277.2 187.4L277.2 187.4L282.5 187.1Q282.8 188.3 283.7 188.9Q284.7 189.5 286.1 189.5L286.1 189.5Q287.5 189.5 288.4 189.0Q289.3 188.4 289.3 187.6L289.3 187.6Q289.3 186.8 288.7 186.3Q288.1 185.9 286.8 185.6L286.8 185.6L283.4 184.9Q280.5 184.3 279.1 182.9Q277.7 181.5 277.7 179.3L277.7 179.3Q277.7 177.4 278.7 176.0Q279.8 174.7 281.6 173.9Q283.5 173.2 286.0 173.2L286.0 173.2Q289.8 173.2 291.9 174.8Q294.0 176.3 294.4 179.1ZM302.8 193.1L297.4 193.1L297.4 173.5L302.8 173.5L302.8 193.1ZM300.1 170.9L300.1 170.9Q298.9 170.9 298.0 170.1Q297.2 169.3 297.2 168.2L297.2 168.2Q297.2 167.0 298.0 166.2Q298.9 165.4 300.1 165.4L300.1 165.4Q301.3 165.4 302.2 166.2Q303.1 167.0 303.1 168.2L303.1 168.2Q303.1 169.3 302.2 170.1Q301.3 170.9 300.1 170.9ZM322.6 179.1L322.6 179.1L317.6 179.4Q317.5 178.7 317.1 178.2Q316.7 177.7 316.0 177.4Q315.3 177.1 314.3 177.1L314.3 177.1Q313.1 177.1 312.2 177.6Q311.3 178.1 311.3 179.0L311.3 179.0Q311.3 179.7 311.9 180.2Q312.5 180.7 313.8 181.0L313.8 181.0L317.4 181.7Q320.2 182.3 321.7 183.6Q323.1 184.9 323.1 187.0L323.1 187.0Q323.1 188.9 321.9 190.4Q320.8 191.9 318.8 192.7Q316.9 193.5 314.3 193.5L314.3 193.5Q310.4 193.5 308.1 191.8Q305.8 190.2 305.4 187.4L305.4 187.4L310.8 187.1Q311.0 188.3 311.9 188.9Q312.9 189.5 314.3 189.5L314.3 189.5Q315.8 189.5 316.6 189.0Q317.5 188.4 317.5 187.6L317.5 187.6Q317.5 186.8 316.9 186.3Q316.3 185.9 315.0 185.6L315.0 185.6L311.6 184.9Q308.7 184.3 307.3 182.9Q305.9 181.5 305.9 179.3L305.9 179.3Q305.9 177.4 307.0 176.0Q308.0 174.7 309.9 173.9Q311.7 173.2 314.3 173.2L314.3 173.2Q318.0 173.2 320.1 174.8Q322.3 176.3 322.6 179.1ZM324.2 173.5L336.0 173.5L336.0 177.5L324.2 177.5L324.2 173.5ZM326.9 187.8L326.9 168.8L332.3 168.8L332.3 187.1Q332.3 187.8 332.6 188.2Q332.8 188.6 333.2 188.8Q333.6 189.0 334.2 189.0L334.2 189.0Q334.6 189.0 335.0 188.9Q335.3 188.8 335.5 188.8L335.5 188.8L336.4 192.8Q336.0 193.0 335.3 193.1Q334.5 193.3 333.4 193.4L333.4 193.4Q331.5 193.4 330.0 192.8Q328.5 192.2 327.7 191.0Q326.9 189.7 326.9 187.8L326.9 187.8ZM344.3 193.5L344.3 193.5Q342.4 193.5 340.9 192.8Q339.5 192.1 338.6 190.8Q337.8 189.5 337.8 187.6L337.8 187.6Q337.8 186.0 338.4 184.9Q339.0 183.7 340.0 183.1Q341.0 182.4 342.4 182.0Q343.7 181.7 345.1 181.6L345.1 181.6Q346.9 181.4 347.9 181.2Q349.0 181.1 349.4 180.7Q349.9 180.4 349.9 179.8L349.9 179.8L349.9 179.7Q349.9 178.5 349.1 177.8Q348.4 177.2 347.0 177.2L347.0 177.2Q345.5 177.2 344.6 177.8Q343.8 178.5 343.5 179.4L343.5 179.4L338.5 179.0Q338.8 177.2 340.0 175.9Q341.1 174.6 342.9 173.9Q344.7 173.2 347.0 173.2L347.0 173.2Q348.6 173.2 350.1 173.6Q351.6 174.0 352.8 174.8Q354.0 175.6 354.7 176.8Q355.3 178.1 355.3 179.8L355.3 179.8L355.3 193.1L350.2 193.1L350.2 190.4L350.0 190.4Q349.6 191.3 348.8 192.0Q348.0 192.7 346.9 193.1Q345.7 193.5 344.3 193.5ZM345.8 189.7L345.8 189.7Q347.0 189.7 348.0 189.2Q348.9 188.7 349.4 187.9Q349.9 187.1 349.9 186.1L349.9 186.1L349.9 184.0Q349.7 184.2 349.2 184.3Q348.8 184.4 348.2 184.5Q347.7 184.6 347.1 184.7Q346.6 184.8 346.2 184.9L346.2 184.9Q345.2 185.0 344.5 185.3Q343.8 185.6 343.4 186.1Q343.0 186.7 343.0 187.4L343.0 187.4Q343.0 188.5 343.8 189.1Q344.6 189.7 345.8 189.7ZM364.1 181.7L364.1 181.7L364.1 193.1L358.7 193.1L358.7 173.5L363.9 173.5L363.9 176.9L364.1 176.9Q364.7 175.2 366.3 174.2Q367.8 173.2 370.0 173.2L370.0 173.2Q372.0 173.2 373.6 174.1Q375.1 175.0 375.9 176.6Q376.8 178.3 376.8 180.6L376.8 180.6L376.8 193.1L371.3 193.1L371.3 181.6Q371.3 179.8 370.4 178.7Q369.5 177.7 367.8 177.7L367.8 177.7Q366.7 177.7 365.9 178.2Q365.1 178.7 364.6 179.6Q364.1 180.5 364.1 181.7ZM378.8 173.5L390.6 173.5L390.6 177.5L378.8 177.5L378.8 173.5ZM381.5 187.8L381.5 168.8L386.9 168.8L386.9 187.1Q386.9 187.8 387.1 188.2Q387.4 188.6 387.8 188.8Q388.2 189.0 388.8 189.0L388.8 189.0Q389.1 189.0 389.5 188.9Q389.9 188.8 390.1 188.8L390.1 188.8L391.0 192.8Q390.6 193.0 389.8 193.1Q389.1 193.3 388.0 193.4L388.0 193.4Q386.0 193.4 384.6 192.8Q383.1 192.2 382.3 191.0Q381.5 189.7 381.5 187.8L381.5 187.8Z "/><mask id="satori_om-id-0-0-0-1"><rect x="32" y="200" width="360" height="40" fill="#fff"/></mask><path fill="#4f46e5" d="M45.4 212.9L38.8 233.1L32.9 233.1L41.9 206.9L49.0 206.9L58.1 233.1L52.1 233.1L45.6 212.9L45.4 212.9ZM38.4 227.1L38.4 222.8L52.4 222.8L52.4 227.1L38.4 227.1ZM60.3 206.9L65.8 206.9L65.8 233.1L60.3 233.1L60.3 206.9Z M75.3 213.5L87.4 213.5L87.4 217.5L75.3 217.5L75.3 213.5ZM83.5 233.1L78.1 233.1L78.1 212.0Q78.1 209.9 78.9 208.5Q79.7 207.1 81.2 206.4Q82.6 205.7 84.5 205.7L84.5 205.7Q85.8 205.7 86.8 205.9Q87.8 206.1 88.3 206.2L88.3 206.2L87.4 210.3Q87.1 210.2 86.6 210.1Q86.1 210.0 85.6 210.0L85.6 210.0Q84.4 210.0 84.0 210.6Q83.5 211.1 83.5 212.1L83.5 212.1L83.5 233.1ZM98.0 233.5L98.0 233.5Q95.0 233.5 92.9 232.2Q90.7 230.9 89.5 228.6Q88.3 226.4 88.3 223.3L88.3 223.3Q88.3 220.3 89.5 218.0Q90.7 215.7 92.9 214.5Q95.0 213.2 98.0 213.2L98.0 213.2Q101.0 213.2 103.2 214.5Q105.3 215.7 106.5 218.0Q107.7 220.3 107.7 223.3L107.7 223.3Q107.7 226.4 106.5 228.6Q105.3 230.9 103.2 232.2Q101.0 233.5 98.0 233.5ZM98.0 229.3L98.0 229.3Q99.4 229.3 100.3 228.5Q101.2 227.7 101.7 226.4Q102.1 225.0 102.1 223.3L102.1 223.3Q102.1 221.6 101.7 220.3Q101.2 218.9 100.3 218.1Q99.4 217.4 98.0 217.4L98.0 217.4Q96.7 217.4 95.7 218.1Q94.8 218.9 94.3 220.3Q93.9 221.6 93.9 223.3L93.9 223.3Q93.9 225.0 94.3 226.4Q94.8 227.7 95.7 228.5Q96.7 229.3 98.0 229.3ZM115.8 233.1L110.3 233.1L110.3 213.5L115.6 213.5L115.6 216.9L115.8 216.9Q116.3 215.1 117.6 214.1Q118.9 213.2 120.5 213.2L120.5 213.2Q120.9 213.2 121.4 213.2Q121.9 213.3 122.2 213.4L122.2 213.4L122.2 218.2Q121.9 218.1 121.2 218.0Q120.5 217.9 119.9 217.9L119.9 217.9Q118.7 217.9 117.8 218.4Q116.9 218.9 116.3 219.9Q115.8 220.8 115.8 222.0L115.8 222.0L115.8 233.1Z M143.5 212.9L136.9 233.1L131.0 233.1L140.0 206.9L147.1 206.9L156.2 233.1L150.2 233.1L143.7 212.9L143.5 212.9ZM136.5 227.1L136.5 222.8L150.5 222.8L150.5 227.1L136.5 227.1ZM164.6 233.4L164.6 233.4Q162.4 233.4 160.6 232.3Q158.8 231.1 157.7 228.8Q156.7 226.6 156.7 223.3L156.7 223.3Q156.7 219.9 157.7 217.7Q158.8 215.4 160.6 214.3Q162.4 213.2 164.6 213.2L164.6 213.2Q166.3 213.2 167.4 213.8Q168.5 214.3 169.2 215.1Q169.8 216.0 170.2 216.8L170.2 216.8L170.4 216.8L170.4 206.9L175.8 206.9L175.8 233.1L170.4 233.1L170.4 229.9L170.2 229.9Q169.8 230.8 169.1 231.6Q168.4 232.4 167.3 232.9Q166.2 233.4 164.6 233.4ZM166.3 229.1L166.3 229.1Q167.7 229.1 168.6 228.4Q169.5 227.6 170.0 226.3Q170.5 225.0 170.5 223.3L170.5 223.3Q170.5 221.5 170.0 220.2Q169.5 218.9 168.6 218.2Q167.7 217.5 166.3 217.5L166.3 217.5Q165.0 217.5 164.1 218.3Q163.2 219.0 162.7 220.3Q162.2 221.6 162.2 223.3L162.2 223.3Q162.2 225.0 162.7 226.3Q163.2 227.6 164.1 228.3Q165.0 229.1 166.3 229.1ZM191.9 213.5L197.7 213.5L190.8 233.1L184.7 233.1L177.8 213.5L183.5 213.5L187.6 227.5L187.8 227.5L191.9 213.5ZM207.8 233.5L207.8 233.5Q204.8 233.5 202.6 232.2Q200.5 230.9 199.3 228.6Q198.1 226.4 198.1 223.3L198.1 223.3Q198.1 220.3 199.3 218.0Q200.5 215.7 202.6 214.5Q204.8 213.2 207.8 213.2L207.8 213.2Q210.7 213.2 212.9 214.5Q215.1 215.7 216.3 218.0Q217.4 220.3 217.4 223.3L217.4 223.3Q217.4 226.4 216.3 228.6Q215.1 230.9 212.9 232.2Q210.7 233.5 207.8 233.5ZM207.8 229.3L207.8 229.3Q209.1 229.3 210.1 228.5Q211.0 227.7 211.4 226.4Q211.9 225.0 211.9 223.3L211.9 223.3Q211.9 221.6 211.4 220.3Q211.0 218.9 210.1 218.1Q209.1 217.4 207.8 217.4L207.8 217.4Q206.4 217.4 205.5 218.1Q204.6 218.9 204.1 220.3Q203.6 221.6 203.6 223.3L203.6 223.3Q203.6 225.0 204.1 226.4Q204.6 227.7 205.5 228.5Q206.4 229.3 207.8 229.3ZM229.0 233.5L229.0 233.5Q225.9 233.5 223.8 232.2Q221.6 230.9 220.5 228.6Q219.3 226.3 219.3 223.3L219.3 223.3Q219.3 220.3 220.5 218.1Q221.6 215.8 223.8 214.5Q226.0 213.2 228.9 213.2L228.9 213.2Q231.5 213.2 233.4 214.1Q235.4 215.1 236.5 216.8Q237.6 218.4 237.7 220.7L237.7 220.7L232.6 220.7Q232.4 219.2 231.4 218.3Q230.5 217.4 229.0 217.4L229.0 217.4Q227.8 217.4 226.8 218.1Q225.9 218.8 225.4 220.1Q224.8 221.4 224.8 223.3L224.8 223.3Q224.8 225.2 225.3 226.5Q225.9 227.8 226.8 228.5Q227.8 229.2 229.0 229.2L229.0 229.2Q230.0 229.2 230.7 228.8Q231.5 228.4 231.9 227.7Q232.4 226.9 232.6 225.9L232.6 225.9L237.7 225.9Q237.6 228.1 236.5 229.9Q235.4 231.6 233.5 232.5Q231.6 233.5 229.0 233.5ZM245.9 233.5L245.9 233.5Q244.1 233.5 242.6 232.8Q241.1 232.1 240.3 230.8Q239.4 229.5 239.4 227.6L239.4 227.6Q239.4 226.0 240.0 224.9Q240.6 223.7 241.6 223.1Q242.7 222.4 244.0 222.0Q245.3 221.7 246.8 221.6L246.8 221.6Q248.5 221.4 249.5 221.2Q250.6 221.1 251.1 220.7Q251.5 220.4 251.5 219.8L251.5 219.8L251.5 219.7Q251.5 218.5 250.8 217.8Q250.0 217.2 248.6 217.2L248.6 217.2Q247.2 217.2 246.3 217.8Q245.4 218.5 245.1 219.4L245.1 219.4L240.1 219.0Q240.5 217.2 241.6 215.9Q242.7 214.6 244.5 213.9Q246.3 213.2 248.7 213.2L248.7 213.2Q250.3 213.2 251.8 213.6Q253.3 214.0 254.5 214.8Q255.6 215.6 256.3 216.8Q257.0 218.1 257.0 219.8L257.0 219.8L257.0 233.1L251.8 233.1L251.8 230.4L251.7 230.4Q251.2 231.3 250.4 232.0Q249.6 232.7 248.5 233.1Q247.4 233.5 245.9 233.5ZM247.5 229.7L247.5 229.7Q248.7 229.7 249.6 229.2Q250.5 228.7 251.1 227.9Q251.6 227.1 251.6 226.1L251.6 226.1L251.6 224.0Q251.3 224.2 250.9 224.3Q250.4 224.4 249.9 224.5Q249.3 224.6 248.8 224.7Q248.2 224.8 247.8 224.9L247.8 224.9Q246.8 225.0 246.1 225.3Q245.4 225.6 245.0 226.1Q244.6 226.7 244.6 227.4L244.6 227.4Q244.6 228.5 245.4 229.1Q246.2 229.7 247.5 229.7ZM269.2 233.5L269.2 233.5Q266.2 233.5 264.0 232.2Q261.8 230.9 260.7 228.6Q259.5 226.3 259.5 223.3L259.5 223.3Q259.5 220.3 260.7 218.1Q261.9 215.8 264.0 214.5Q266.2 213.2 269.2 213.2L269.2 213.2Q271.7 213.2 273.7 214.1Q275.6 215.1 276.7 216.8Q277.8 218.4 278.0 220.7L278.0 220.7L272.8 220.7Q272.6 219.2 271.7 218.3Q270.8 217.4 269.3 217.4L269.3 217.4Q268.0 217.4 267.1 218.1Q266.1 218.8 265.6 220.1Q265.1 221.4 265.1 223.3L265.1 223.3Q265.1 225.2 265.6 226.5Q266.1 227.8 267.0 228.5Q268.0 229.2 269.3 229.2L269.3 229.2Q270.2 229.2 270.9 228.8Q271.7 228.4 272.2 227.7Q272.7 226.9 272.8 225.9L272.8 225.9L278.0 225.9Q277.8 228.1 276.7 229.9Q275.6 231.6 273.7 232.5Q271.8 233.5 269.2 233.5ZM283.9 240.5L283.9 240.5Q282.9 240.5 282.0 240.3Q281.1 240.1 280.5 239.9L280.5 239.9L281.7 235.8Q282.7 236.1 283.5 236.1Q284.2 236.2 284.8 235.8Q285.4 235.4 285.7 234.5L285.7 234.5L286.1 233.7L279.0 213.5L284.7 213.5L288.8 227.9L289.0 227.9L293.1 213.5L298.9 213.5L291.2 235.2Q290.7 236.8 289.8 238.0Q288.8 239.2 287.4 239.8Q285.9 240.5 283.9 240.5ZM302.7 233.4L302.7 233.4Q301.5 233.4 300.5 232.5Q299.6 231.6 299.6 230.4L299.6 230.4Q299.6 229.1 300.5 228.2Q301.5 227.3 302.7 227.3L302.7 227.3Q303.9 227.3 304.9 228.2Q305.8 229.1 305.8 230.4L305.8 230.4Q305.8 231.2 305.4 231.9Q304.9 232.6 304.2 233.0Q303.5 233.4 302.7 233.4Z "/><mask id="satori_om-id-0-0-1"><rect x="500" y="175" width="268" height="50" fill="#fff"/></mask><mask id="satori_ms-id-0-0-1-0-1" maskUnits="userSpaceOnUse"><rect x="0" y="0" width="800" height="400" fill="#fff"/><path x="500" y="175" width="128" height="50" fill="#000"  stroke-width="-2" d="M506,175 h116 a6,6 0 0 1 6,6 v38 a6,6 0 0 1 -6,6 h-116 a6,6 0 0 1 -6,-6 v-38 a6,6 0 0 1 6,-6"/></mask><mask id="satori_ms-id-0-0-1-0-1-neg" maskUnits="userSpaceOnUse"><path x="500" y="176" width="128" height="50" fill="#fff" stroke="#000" stroke-width="2" d="M506,176 h116 a6,6 0 0 1 6,6 v38 a6,6 0 0 1 -6,6 h-116 a6,6 0 0 1 -6,-6 v-38 a6,6 0 0 1 6,-6"/></mask><defs><filter id="satori_s-id-0-0-1-0-1" x="0%" y="0%" width="100%" height="100%"><feGaussianBlur stdDeviation="1" result="b"/><feFlood flood-color="rgba(0, 0, 0, 0.1)" in="SourceGraphic" result="f"/><feComposite in="f" in2="b" operator="in"/></filter></defs><g mask="url(#satori_ms-id-0-0-1-0-1)" filter="url(#satori_s-id-0-0-1-0-1)" opacity="1"><g mask="url(#satori_ms-id-0-0-1-0-1-neg)"><path x="500" y="176" width="128" height="50" fill="#fff" stroke="#fff" stroke-width="-2" d="M506,176 h116 a6,6 0 0 1 6,6 v38 a6,6 0 0 1 -6,6 h-116 a6,6 0 0 1 -6,-6 v-38 a6,6 0 0 1 6,-6"/></g></g><mask id="satori_ms-id-0-0-1-0-0" maskUnits="userSpaceOnUse"><rect x="0" y="0" width="800" height="400" fill="#fff"/><path x="500" y="175" width="128" height="50" fill="#000"  stroke-width="0" d="M506,175 h116 a6,6 0 0 1 6,6 v38 a6,6 0 0 1 -6,6 h-116 a6,6 0 0 1 -6,-6 v-38 a6,6 0 0 1 6,-6"/></mask><defs><filter id="satori_s-id-0-0-1-0-0" x="-1.7578125%" y="-4.5%" width="103.515625%" height="109.00000000000001%"><feGaussianBlur stdDeviation="1.5" result="b"/><feFlood flood-color="rgba(0, 0, 0, 0.1)" in="SourceGraphic" result="f"/><feComposite in="f" in2="b" operator="in"/></filter></defs><g mask="url(#satori_ms-id-0-0-1-0-0)" filter="url(#satori_s-id-0-0-1-0-0)" opacity="1"><path x="500" y="176" width="128" height="50" fill="#fff" stroke="#fff" stroke-width="0" d="M506,176 h116 a6,6 0 0 1 6,6 v38 a6,6 0 0 1 -6,6 h-116 a6,6 0 0 1 -6,-6 v-38 a6,6 0 0 1 6,-6"/></g><mask id="satori_om-id-0-0-1-0"><rect x="500" y="175" width="128" height="50" fill="#fff"/></mask><defs><clipPath id="satori_bc-id-0-0-1-0-0"><path x="500" y="175" width="128" height="50" d="M506,175 h116 a6,6 0 0 1 6,6 v38 a6,6 0 0 1 -6,6 h-116 a6,6 0 0 1 -6,-6 v-38 a6,6 0 0 1 6,-6"/></clipPath></defs><mask id="satori_om-id-0-0-1-0-0"><rect x="501" y="176" width="126" height="48" fill="#fff"/><path width="128" height="50" fill="none" stroke="#000" stroke-width="2" d="M501.757,176.757 A6,6 0 0 1 506,175 h116 a6,6 0 0 1 6,6 v38 a6,6 0 0 1 -6,6 h-116 a6,6 0 0 1 -6,-6 v-38 A6,6 0 0 1 501.757,176.757"/></mask><path x="500" y="175" width="128" height="50" fill="#4f46e5" d="M506,175 h116 a6,6 0 0 1 6,6 v38 a6,6 0 0 1 -6,6 h-116 a6,6 0 0 1 -6,-6 v-38 a6,6 0 0 1 6,-6"/><path width="128" height="50" clip-path="url(#satori_bc-id-0-0-1-0-0)" fill="none" stroke="transparent" stroke-width="2" d="M501.757,176.757 A6,6 0 0 1 506,175 h116 a6,6 0 0 1 6,6 v38 a6,6 0 0 1 -6,6 h-116 a6,6 0 0 1 -6,-6 v-38 A6,6 0 0 1 501.757,176.757"/><path fill="#fff" d="M531.8 197.8L530.4 197.8Q530.2 197.2 529.9 196.8Q529.6 196.3 529.2 196.0Q528.7 195.7 528.2 195.5Q527.7 195.3 527.0 195.3L527.0 195.3Q526.0 195.3 525.2 195.9Q524.3 196.4 523.8 197.4Q523.3 198.5 523.3 200L523.3 200Q523.3 201.5 523.8 202.6Q524.3 203.6 525.2 204.1Q526.1 204.7 527.1 204.7L527.1 204.7Q528.1 204.7 528.9 204.2Q529.7 203.8 530.1 203.0Q530.5 202.2 530.5 201.2L530.5 201.2L531.0 201.3L527.5 201.3L527.5 200L531.9 200L531.9 201.3Q531.9 202.7 531.3 203.8Q530.7 204.8 529.6 205.4Q528.5 206.0 527.1 206.0L527.1 206.0Q525.6 206.0 524.4 205.3Q523.3 204.5 522.6 203.2Q522.0 201.8 522.0 200L522.0 200Q522.0 198.6 522.3 197.5Q522.7 196.4 523.4 195.6Q524.1 194.9 525.0 194.4Q525.9 194.0 527.0 194.0L527.0 194.0Q528.0 194.0 528.8 194.3Q529.6 194.6 530.2 195.1Q530.8 195.6 531.2 196.3Q531.7 197.0 531.8 197.8L531.8 197.8ZM537.8 206L537.8 206Q536.5 206 535.6 205.4Q534.7 204.9 534.2 203.9Q533.7 202.9 533.7 201.5L533.7 201.5Q533.7 200.2 534.2 199.2Q534.7 198.1 535.6 197.6Q536.5 197.0 537.6 197.0L537.6 197.0Q538.3 197.0 539.0 197.2Q539.6 197.4 540.2 197.9Q540.7 198.4 541.1 199.3Q541.4 200.1 541.4 201.3L541.4 201.3L541.4 201.9L534.7 201.9L534.7 200.8L540.0 200.8Q540.0 200.0 539.7 199.4Q539.4 198.9 538.9 198.5Q538.4 198.2 537.6 198.2L537.6 198.2Q536.8 198.2 536.3 198.6Q535.7 199.0 535.4 199.6Q535.0 200.2 535.0 201.0L535.0 201.0L535.0 201.7Q535.0 202.7 535.4 203.4Q535.7 204.1 536.3 204.4Q537.0 204.8 537.8 204.8L537.8 204.8Q538.3 204.8 538.7 204.6Q539.2 204.5 539.5 204.2Q539.8 203.9 540.0 203.4L540.0 203.4L541.3 203.8Q541.0 204.5 540.6 205.0Q540.1 205.4 539.4 205.7Q538.7 206 537.8 206ZM542.7 197.1L547.2 197.1L547.2 198.2L542.7 198.2L542.7 197.1ZM544.0 203.7L544.0 195L545.4 195L545.4 203.3Q545.4 203.9 545.5 204.2Q545.7 204.4 546.0 204.5Q546.2 204.6 546.5 204.6L546.5 204.6Q546.7 204.6 546.9 204.6Q547.0 204.6 547.1 204.6L547.1 204.6L547.4 205.8Q547.3 205.8 547.0 205.9Q546.8 205.9 546.4 205.9L546.4 205.9Q545.8 205.9 545.3 205.7Q544.7 205.4 544.4 204.9Q544.0 204.4 544.0 203.7L544.0 203.7Z M559.9 199.0L559.9 199.0L558.7 199.4Q558.6 199.1 558.4 198.8Q558.2 198.5 557.8 198.3Q557.4 198.1 556.8 198.1L556.8 198.1Q556.0 198.1 555.5 198.5Q555.0 198.9 555.0 199.4L555.0 199.4Q555.0 199.9 555.3 200.2Q555.7 200.5 556.5 200.7L556.5 200.7L557.8 201.0Q558.9 201.3 559.5 201.9Q560.1 202.5 560.1 203.4L560.1 203.4Q560.1 204.1 559.7 204.7Q559.2 205.3 558.5 205.7Q557.7 206 556.7 206L556.7 206Q555.3 206 554.5 205.4Q553.6 204.8 553.4 203.7L553.4 203.7L554.6 203.4Q554.8 204.1 555.3 204.5Q555.8 204.8 556.7 204.8L556.7 204.8Q557.6 204.8 558.2 204.4Q558.7 204.0 558.7 203.5L558.7 203.5Q558.7 203 558.4 202.7Q558.1 202.4 557.4 202.2L557.4 202.2L556.0 201.9Q554.8 201.6 554.2 201.0Q553.6 200.4 553.6 199.5L553.6 199.5Q553.6 198.8 554.1 198.2Q554.5 197.6 555.2 197.3Q555.9 197.0 556.8 197.0L556.8 197.0Q558.1 197.0 558.9 197.5Q559.6 198.1 559.9 199.0ZM561.4 197.1L565.9 197.1L565.9 198.2L561.4 198.2L561.4 197.1ZM562.7 203.7L562.7 195L564.0 195L564.0 203.3Q564.0 203.9 564.2 204.2Q564.4 204.4 564.6 204.5Q564.9 204.6 565.2 204.6L565.2 204.6Q565.4 204.6 565.6 204.6Q565.7 204.6 565.8 204.6L565.8 204.6L566.1 205.8Q565.9 205.8 565.7 205.9Q565.4 205.9 565.1 205.9L565.1 205.9Q564.5 205.9 564.0 205.7Q563.4 205.4 563.1 204.9Q562.7 204.4 562.7 203.7L562.7 203.7ZM570.5 206.0L570.5 206.0Q569.7 206.0 569.0 205.7Q568.3 205.4 567.9 204.8Q567.5 204.2 567.5 203.3L567.5 203.3Q567.5 202.6 567.8 202.1Q568.1 201.7 568.6 201.4Q569.1 201.1 569.7 201.0Q570.3 200.9 570.9 200.8L570.9 200.8Q571.7 200.7 572.2 200.6Q572.7 200.6 572.9 200.4Q573.2 200.3 573.2 200.0L573.2 200.0L573.2 199.9Q573.2 199.1 572.7 198.6Q572.2 198.2 571.3 198.2L571.3 198.2Q570.4 198.2 569.8 198.6Q569.3 199 569.0 199.5L569.0 199.5L567.8 199.0Q568.1 198.2 568.7 197.8Q569.3 197.3 569.9 197.2Q570.6 197.0 571.3 197.0L571.3 197.0Q571.7 197.0 572.2 197.1Q572.8 197.2 573.3 197.5Q573.8 197.8 574.2 198.4Q574.5 199.0 574.5 200.1L574.5 200.1L574.5 205.8L573.2 205.8L573.2 204.6L573.1 204.6Q573.0 204.9 572.6 205.2Q572.3 205.6 571.8 205.8Q571.3 206.0 570.5 206.0ZM570.7 204.8L570.7 204.8Q571.5 204.8 572.0 204.5Q572.6 204.2 572.9 203.7Q573.2 203.2 573.2 202.7L573.2 202.7L573.2 201.4Q573.1 201.5 572.8 201.6Q572.5 201.7 572.1 201.8Q571.8 201.8 571.4 201.9Q571.1 201.9 570.8 201.9L570.8 201.9Q570.3 202 569.9 202.2Q569.4 202.3 569.1 202.6Q568.9 202.9 568.9 203.4L568.9 203.4Q568.9 204.1 569.4 204.5Q569.9 204.8 570.7 204.8ZM578.3 205.8L577.0 205.8L577.0 197.1L578.3 197.1L578.3 198.4L578.3 198.4Q578.6 197.8 579.2 197.4Q579.8 197.0 580.6 197.0L580.6 197.0Q580.8 197.0 581.0 197.0Q581.2 197.0 581.3 197.0L581.3 197.0L581.3 198.3Q581.3 198.3 581.0 198.3Q580.8 198.3 580.5 198.3L580.5 198.3Q579.9 198.3 579.4 198.5Q578.9 198.8 578.6 199.2Q578.3 199.7 578.3 200.3L578.3 200.3L578.3 205.8ZM582.7 197.1L587.3 197.1L587.3 198.2L582.7 198.2L582.7 197.1ZM584.0 203.7L584.0 195L585.4 195L585.4 203.3Q585.4 203.9 585.6 204.2Q585.7 204.4 586.0 204.5Q586.3 204.6 586.5 204.6L586.5 204.6Q586.8 204.6 586.9 204.6Q587.1 204.6 587.1 204.6L587.1 204.6L587.4 205.8Q587.3 205.8 587.0 205.9Q586.8 205.9 586.4 205.9L586.4 205.9Q585.8 205.9 585.3 205.7Q584.8 205.4 584.4 204.9Q584.0 204.4 584.0 203.7L584.0 203.7ZM592.8 206L592.8 206Q591.6 206 590.7 205.4Q589.8 204.9 589.3 203.9Q588.8 202.9 588.8 201.5L588.8 201.5Q588.8 200.2 589.3 199.2Q589.8 198.1 590.6 197.6Q591.5 197.0 592.7 197.0L592.7 197.0Q593.4 197.0 594.1 197.2Q594.7 197.4 595.3 197.9Q595.8 198.4 596.1 199.3Q596.5 200.1 596.5 201.3L596.5 201.3L596.5 201.9L589.7 201.9L589.7 200.8L595.1 200.8Q595.1 200.0 594.8 199.4Q594.5 198.9 594.0 198.5Q593.4 198.2 592.7 198.2L592.7 198.2Q591.9 198.2 591.3 198.6Q590.7 199.0 590.4 199.6Q590.1 200.2 590.1 201.0L590.1 201.0L590.1 201.7Q590.1 202.7 590.5 203.4Q590.8 204.1 591.4 204.4Q592.0 204.8 592.8 204.8L592.8 204.8Q593.4 204.8 593.8 204.6Q594.2 204.5 594.5 204.2Q594.9 203.9 595.0 203.4L595.0 203.4L596.3 203.8Q596.1 204.5 595.6 205.0Q595.1 205.4 594.4 205.7Q593.7 206 592.8 206ZM601.8 206L601.8 206Q600.7 206 599.9 205.4Q599.0 204.9 598.6 203.9Q598.1 202.9 598.1 201.5L598.1 201.5Q598.1 200.1 598.6 199.1Q599.0 198.1 599.9 197.5Q600.7 197.0 601.8 197.0L601.8 197.0Q602.7 197.0 603.2 197.3Q603.7 197.5 603.9 197.9Q604.2 198.3 604.3 198.5L604.3 198.5L604.5 198.5L604.5 194.2L605.8 194.2L605.8 205.8L604.5 205.8L604.5 204.5L604.3 204.5Q604.2 204.7 603.9 205.1Q603.6 205.4 603.1 205.7Q602.6 206 601.8 206ZM602.0 204.8L602.0 204.8Q602.8 204.8 603.3 204.4Q603.9 203.9 604.2 203.2Q604.5 202.4 604.5 201.5L604.5 201.5Q604.5 200.5 604.2 199.7Q603.9 199.0 603.4 198.6Q602.8 198.2 602.0 198.2L602.0 198.2Q601.1 198.2 600.6 198.6Q600.0 199.1 599.7 199.8Q599.4 200.5 599.4 201.5L599.4 201.5Q599.4 202.4 599.7 203.1Q600.0 203.9 600.6 204.3Q601.1 204.8 602.0 204.8Z "/><mask id="satori_ms-id-0-0-1-1-1" maskUnits="userSpaceOnUse"><rect x="0" y="0" width="800" height="400" fill="#fff"/><path x="640" y="175" width="128" height="50" fill="#000"  stroke-width="-2" d="M646,175 h116 a6,6 0 0 1 6,6 v38 a6,6 0 0 1 -6,6 h-116 a6,6 0 0 1 -6,-6 v-38 a6,6 0 0 1 6,-6"/></mask><mask id="satori_ms-id-0-0-1-1-1-neg" maskUnits="userSpaceOnUse"><path x="640" y="176" width="128" height="50" fill="#fff" stroke="#000" stroke-width="2" d="M646,176 h116 a6,6 0 0 1 6,6 v38 a6,6 0 0 1 -6,6 h-116 a6,6 0 0 1 -6,-6 v-38 a6,6 0 0 1 6,-6"/></mask><defs><filter id="satori_s-id-0-0-1-1-1" x="0%" y="0%" width="100%" height="100%"><feGaussianBlur stdDeviation="1" result="b"/><feFlood flood-color="rgba(0, 0, 0, 0.1)" in="SourceGraphic" result="f"/><feComposite in="f" in2="b" operator="in"/></filter></defs><g mask="url(#satori_ms-id-0-0-1-1-1)" filter="url(#satori_s-id-0-0-1-1-1)" opacity="1"><g mask="url(#satori_ms-id-0-0-1-1-1-neg)"><path x="640" y="176" width="128" height="50" fill="#fff" stroke="#fff" stroke-width="-2" d="M646,176 h116 a6,6 0 0 1 6,6 v38 a6,6 0 0 1 -6,6 h-116 a6,6 0 0 1 -6,-6 v-38 a6,6 0 0 1 6,-6"/></g></g><mask id="satori_ms-id-0-0-1-1-0" maskUnits="userSpaceOnUse"><rect x="0" y="0" width="800" height="400" fill="#fff"/><path x="640" y="175" width="128" height="50" fill="#000"  stroke-width="0" d="M646,175 h116 a6,6 0 0 1 6,6 v38 a6,6 0 0 1 -6,6 h-116 a6,6 0 0 1 -6,-6 v-38 a6,6 0 0 1 6,-6"/></mask><defs><filter id="satori_s-id-0-0-1-1-0" x="-1.7578125%" y="-4.5%" width="103.515625%" height="109.00000000000001%"><feGaussianBlur stdDeviation="1.5" result="b"/><feFlood flood-color="rgba(0, 0, 0, 0.1)" in="SourceGraphic" result="f"/><feComposite in="f" in2="b" operator="in"/></filter></defs><g mask="url(#satori_ms-id-0-0-1-1-0)" filter="url(#satori_s-id-0-0-1-1-0)" opacity="1"><path x="640" y="176" width="128" height="50" fill="#fff" stroke="#fff" stroke-width="0" d="M646,176 h116 a6,6 0 0 1 6,6 v38 a6,6 0 0 1 -6,6 h-116 a6,6 0 0 1 -6,-6 v-38 a6,6 0 0 1 6,-6"/></g><mask id="satori_om-id-0-0-1-1"><rect x="640" y="175" width="128" height="50" fill="#fff"/></mask><defs><clipPath id="satori_bc-id-0-0-1-1-0"><path x="640" y="175" width="128" height="50" d="M646,175 h116 a6,6 0 0 1 6,6 v38 a6,6 0 0 1 -6,6 h-116 a6,6 0 0 1 -6,-6 v-38 a6,6 0 0 1 6,-6"/></clipPath></defs><mask id="satori_om-id-0-0-1-1-0"><rect x="641" y="176" width="126" height="48" fill="#fff"/><path width="128" height="50" fill="none" stroke="#000" stroke-width="2" d="M641.757,176.757 A6,6 0 0 1 646,175 h116 a6,6 0 0 1 6,6 v38 a6,6 0 0 1 -6,6 h-116 a6,6 0 0 1 -6,-6 v-38 A6,6 0 0 1 641.757,176.757"/></mask><path x="640" y="175" width="128" height="50" fill="#fff" d="M646,175 h116 a6,6 0 0 1 6,6 v38 a6,6 0 0 1 -6,6 h-116 a6,6 0 0 1 -6,-6 v-38 a6,6 0 0 1 6,-6"/><path width="128" height="50" clip-path="url(#satori_bc-id-0-0-1-1-0)" fill="none" stroke="transparent" stroke-width="2" d="M641.757,176.757 A6,6 0 0 1 646,175 h116 a6,6 0 0 1 6,6 v38 a6,6 0 0 1 -6,6 h-116 a6,6 0 0 1 -6,-6 v-38 A6,6 0 0 1 641.757,176.757"/><path fill="#4f46e5" d="M669.2 205.8L662.4 205.8L662.4 194.2L663.8 194.2L663.8 204.6L669.2 204.6L669.2 205.8ZM674.9 206L674.9 206Q673.6 206 672.7 205.4Q671.8 204.9 671.3 203.9Q670.8 202.9 670.8 201.5L670.8 201.5Q670.8 200.2 671.3 199.2Q671.8 198.1 672.7 197.6Q673.6 197.0 674.8 197.0L674.8 197.0Q675.4 197.0 676.1 197.2Q676.8 197.4 677.3 197.9Q677.9 198.4 678.2 199.3Q678.5 200.1 678.5 201.3L678.5 201.3L678.5 201.9L671.8 201.9L671.8 200.8L677.1 200.8Q677.1 200.0 676.8 199.4Q676.6 198.9 676.0 198.5Q675.5 198.2 674.8 198.2L674.8 198.2Q673.9 198.2 673.4 198.6Q672.8 199.0 672.5 199.6Q672.2 200.2 672.2 201.0L672.2 201.0L672.2 201.7Q672.2 202.7 672.5 203.4Q672.8 204.1 673.5 204.4Q674.1 204.8 674.9 204.8L674.9 204.8Q675.4 204.8 675.8 204.6Q676.3 204.5 676.6 204.2Q676.9 203.9 677.1 203.4L677.1 203.4L678.4 203.8Q678.2 204.5 677.7 205.0Q677.2 205.4 676.5 205.7Q675.8 206 674.9 206ZM683.1 206.0L683.1 206.0Q682.3 206.0 681.6 205.7Q680.9 205.4 680.5 204.8Q680.1 204.2 680.1 203.3L680.1 203.3Q680.1 202.6 680.4 202.1Q680.7 201.7 681.2 201.4Q681.7 201.1 682.3 201.0Q682.9 200.9 683.5 200.8L683.5 200.8Q684.3 200.7 684.8 200.6Q685.3 200.6 685.5 200.4Q685.8 200.3 685.8 200.0L685.8 200.0L685.8 199.9Q685.8 199.1 685.3 198.6Q684.9 198.2 683.9 198.2L683.9 198.2Q683.0 198.2 682.4 198.6Q681.9 199 681.7 199.5L681.7 199.5L680.4 199.0Q680.7 198.2 681.3 197.8Q681.9 197.3 682.5 197.2Q683.2 197.0 683.9 197.0L683.9 197.0Q684.3 197.0 684.9 197.1Q685.4 197.2 685.9 197.5Q686.4 197.8 686.8 198.4Q687.1 199.0 687.1 200.1L687.1 200.1L687.1 205.8L685.8 205.8L685.8 204.6L685.7 204.6Q685.6 204.9 685.3 205.2Q684.9 205.6 684.4 205.8Q683.9 206.0 683.1 206.0ZM683.3 204.8L683.3 204.8Q684.1 204.8 684.7 204.5Q685.2 204.2 685.5 203.7Q685.8 203.2 685.8 202.7L685.8 202.7L685.8 201.4Q685.7 201.5 685.4 201.6Q685.1 201.7 684.7 201.8Q684.4 201.8 684.0 201.9Q683.7 201.9 683.5 201.9L683.5 201.9Q682.9 202 682.5 202.2Q682.0 202.3 681.8 202.6Q681.5 202.9 681.5 203.4L681.5 203.4Q681.5 204.1 682.0 204.5Q682.5 204.8 683.3 204.8ZM690.9 205.8L689.6 205.8L689.6 197.1L690.9 197.1L690.9 198.4L691.0 198.4Q691.2 197.8 691.8 197.4Q692.4 197.0 693.2 197.0L693.2 197.0Q693.4 197.0 693.6 197.0Q693.8 197.0 693.9 197.0L693.9 197.0L693.9 198.3Q693.9 198.3 693.6 198.3Q693.4 198.3 693.1 198.3L693.1 198.3Q692.5 198.3 692.0 198.5Q691.5 198.8 691.2 199.2Q690.9 199.7 690.9 200.3L690.9 200.3L690.9 205.8ZM696.9 200.6L696.9 200.6L696.9 205.8L695.5 205.8L695.5 197.1L696.8 197.1L696.8 198.5L696.9 198.5Q697.2 197.8 697.9 197.4Q698.5 197.0 699.5 197.0L699.5 197.0Q700.4 197.0 701.0 197.3Q701.7 197.7 702.1 198.4Q702.4 199.2 702.4 200.3L702.4 200.3L702.4 205.8L701.1 205.8L701.1 200.4Q701.1 199.3 700.6 198.8Q700.0 198.2 699.1 198.2L699.1 198.2Q698.4 198.2 697.9 198.5Q697.4 198.7 697.2 199.3Q696.9 199.8 696.9 200.6Z M710.7 205.8L709.4 205.8L709.4 197.1L710.7 197.1L710.7 198.5L710.8 198.5Q711.1 197.8 711.7 197.4Q712.3 197.0 713.1 197.0L713.1 197.0Q714 197.0 714.6 197.4Q715.2 197.8 715.5 198.5L715.5 198.5L715.6 198.5Q715.9 197.8 716.6 197.4Q717.2 197.0 718.2 197.0L718.2 197.0Q719.4 197.0 720.1 197.7Q720.8 198.4 720.8 200.0L720.8 200.0L720.8 205.8L719.5 205.8L719.5 200.0Q719.5 199.0 719.0 198.6Q718.4 198.2 717.7 198.2L717.7 198.2Q716.8 198.2 716.3 198.7Q715.8 199.3 715.8 200.1L715.8 200.1L715.8 205.8L714.4 205.8L714.4 199.8Q714.4 199.1 713.9 198.6Q713.5 198.2 712.7 198.2L712.7 198.2Q712.2 198.2 711.7 198.5Q711.3 198.7 711.0 199.2Q710.7 199.7 710.7 200.4L710.7 200.4L710.7 205.8ZM726.8 206L726.8 206Q725.7 206 724.8 205.4Q723.9 204.9 723.4 203.9Q722.9 202.9 722.9 201.5L722.9 201.5Q722.9 200.1 723.4 199.1Q723.9 198.1 724.8 197.5Q725.7 197.0 726.8 197.0L726.8 197.0Q728.0 197.0 728.9 197.5Q729.8 198.1 730.3 199.1Q730.8 200.1 730.8 201.5L730.8 201.5Q730.8 202.9 730.3 203.9Q729.8 204.9 728.9 205.4Q728.0 206 726.8 206ZM726.8 204.8L726.8 204.8Q727.7 204.8 728.3 204.3Q728.9 203.9 729.2 203.1Q729.5 202.4 729.5 201.5L729.5 201.5Q729.5 200.6 729.2 199.9Q728.9 199.1 728.3 198.6Q727.7 198.2 726.8 198.2L726.8 198.2Q725.9 198.2 725.4 198.6Q724.8 199.1 724.5 199.9Q724.2 200.6 724.2 201.5L724.2 201.5Q724.2 202.4 724.5 203.1Q724.8 203.9 725.4 204.3Q725.9 204.8 726.8 204.8ZM734.2 205.8L732.8 205.8L732.8 197.1L734.1 197.1L734.1 198.4L734.2 198.4Q734.5 197.8 735.1 197.4Q735.7 197.0 736.5 197.0L736.5 197.0Q736.6 197.0 736.9 197.0Q737.1 197.0 737.2 197.0L737.2 197.0L737.2 198.3Q737.1 198.3 736.9 198.3Q736.7 198.3 736.4 198.3L736.4 198.3Q735.7 198.3 735.3 198.5Q734.8 198.8 734.5 199.2Q734.2 199.7 734.2 200.3L734.2 200.3L734.2 205.8ZM742.2 206L742.2 206Q740.9 206 740.0 205.4Q739.1 204.9 738.6 203.9Q738.1 202.9 738.1 201.5L738.1 201.5Q738.1 200.2 738.6 199.2Q739.1 198.1 740.0 197.6Q740.9 197.0 742.0 197.0L742.0 197.0Q742.7 197.0 743.4 197.2Q744.1 197.4 744.6 197.9Q745.1 198.4 745.5 199.3Q745.8 200.1 745.8 201.3L745.8 201.3L745.8 201.9L739.1 201.9L739.1 200.8L744.4 200.8Q744.4 200.0 744.1 199.4Q743.8 198.9 743.3 198.5Q742.8 198.2 742.0 198.2L742.0 198.2Q741.2 198.2 740.7 198.6Q740.1 199.0 739.8 199.6Q739.5 200.2 739.5 201.0L739.5 201.0L739.5 201.7Q739.5 202.7 739.8 203.4Q740.1 204.1 740.8 204.4Q741.4 204.8 742.2 204.8L742.2 204.8Q742.7 204.8 743.1 204.6Q743.6 204.5 743.9 204.2Q744.2 203.9 744.4 203.4L744.4 203.4L745.7 203.8Q745.5 204.5 745.0 205.0Q744.5 205.4 743.8 205.7Q743.1 206 742.2 206Z "/></svg>